<svg xmlns="http://www.w3.org/2000/svg" width="1600" height="1010" viewBox="0 0 1600 1010"><title>Canterbury Corpus compact XOR-mask search</title><desc>Saved complete-frame bytes and transformed winner hit rates by Canterbury Corpus file, plus exact-search validation and encoder timing.</desc><style>text{font-family:-apple-system,BlinkMacSystemFont,"Segoe UI",sans-serif;fill:#17363b}.title{font-size:34px;font-weight:700}.subtitle{font-size:17px;fill:#526c71}.panel{font-size:21px;font-weight:700}.axis{font-size:14px;fill:#5e7478}.value{font-size:13px;font-weight:700}.grid{stroke:#dfe7e5;stroke-width:1}.saved{fill:#177b78}.hit{fill:#d16a3a}.card{fill:#fff;stroke:#cad6d3;stroke-width:1.5}.metric{font-size:30px;font-weight:750}.metric-label{font-size:14px;fill:#587075}.note{font-size:15px;fill:#405b60}</style><rect width="100%" height="100%" fill="#f7f5ef"/><text x="80" y="60" class="title">Constant-byte relabeling earns a small but frequent bzip2 gain</text><text x="80" y="94" class="subtitle">Canterbury Corpus · independent 4 KiB frames · complete size includes tags and parameters · ratio = original / stored</text><text x="80" y="158" class="panel">A · Net byte gain and transformed-winner rate by file</text><line x1="150.0" y1="680.00" x2="1510.0" y2="680.00" class="grid"/><text x="136.0" y="685.00" text-anchor="end" class="axis">0 B</text><line x1="150.0" y1="586.00" x2="1510.0" y2="586.00" class="grid"/><text x="136.0" y="591.00" text-anchor="end" class="axis">846 B</text><line x1="150.0" y1="492.00" x2="1510.0" y2="492.00" class="grid"/><text x="136.0" y="497.00" text-anchor="end" class="axis">1,692 B</text><line x1="150.0" y1="398.00" x2="1510.0" y2="398.00" class="grid"/><text x="136.0" y="403.00" text-anchor="end" class="axis">2,539 B</text><line x1="150.0" y1="304.00" x2="1510.0" y2="304.00" class="grid"/><text x="136.0" y="309.00" text-anchor="end" class="axis">3,385 B</text><line x1="150.0" y1="210.00" x2="1510.0" y2="210.00" class="grid"/><text x="136.0" y="215.00" text-anchor="end" class="axis">4,231 B</text><rect x="182.15" y="593.46" width="59.35" height="86.54" class="saved"/><text x="211.82" y="584.46" text-anchor="middle" class="value">779</text><text x="211.82" y="705.00" text-anchor="middle" class="axis">alice29.txt</text><text x="211.82" y="729.00" text-anchor="middle" class="axis">100.0% hits</text><rect x="305.78" y="600.91" width="59.35" height="79.09" class="saved"/><text x="335.45" y="591.91" text-anchor="middle" class="value">712</text><text x="335.45" y="705.00" text-anchor="middle" class="axis">asyoulik.txt</text><text x="335.45" y="729.00" text-anchor="middle" class="axis">100.0% hits</text><rect x="429.42" y="666.56" width="59.35" height="13.44" class="saved"/><text x="459.09" y="657.56" text-anchor="middle" class="value">121</text><text x="459.09" y="705.00" text-anchor="middle" class="axis">cp.html</text><text x="459.09" y="729.00" text-anchor="middle" class="axis">85.7% hits</text><rect x="553.05" y="674.78" width="59.35" height="5.22" class="saved"/><text x="582.73" y="665.78" text-anchor="middle" class="value">47</text><text x="582.73" y="705.00" text-anchor="middle" class="axis">fields.c</text><text x="582.73" y="729.00" text-anchor="middle" class="axis">100.0% hits</text><rect x="676.69" y="678.44" width="59.35" height="1.56" class="saved"/><text x="706.36" y="669.44" text-anchor="middle" class="value">14</text><text x="706.36" y="705.00" text-anchor="middle" class="axis">grammar.lsp</text><text x="706.36" y="729.00" text-anchor="middle" class="axis">100.0% hits</text><rect x="800.33" y="210.00" width="59.35" height="470.00" class="saved"/><text x="830.00" y="226.00" text-anchor="middle" class="value">4,231</text><text x="830.00" y="705.00" text-anchor="middle" class="axis">kennedy.xls</text><text x="830.00" y="729.00" text-anchor="middle" class="axis">82.9% hits</text><rect x="923.96" y="406.62" width="59.35" height="273.38" class="saved"/><text x="953.64" y="397.62" text-anchor="middle" class="value">2,461</text><text x="953.64" y="705.00" text-anchor="middle" class="axis">lcet10.txt</text><text x="953.64" y="729.00" text-anchor="middle" class="axis">100.0% hits</text><rect x="1047.60" y="342.64" width="59.35" height="337.36" class="saved"/><text x="1077.27" y="333.64" text-anchor="middle" class="value">3,037</text><text x="1077.27" y="705.00" text-anchor="middle" class="axis">plrabn12.txt</text><text x="1077.27" y="729.00" text-anchor="middle" class="axis">100.0% hits</text><rect x="1171.24" y="540.59" width="59.35" height="139.41" class="saved"/><text x="1200.91" y="531.59" text-anchor="middle" class="value">1,255</text><text x="1200.91" y="705.00" text-anchor="middle" class="axis">ptt5</text><text x="1200.91" y="729.00" text-anchor="middle" class="axis">95.2% hits</text><rect x="1294.87" y="647.34" width="59.35" height="32.66" class="saved"/><text x="1324.55" y="638.34" text-anchor="middle" class="value">294</text><text x="1324.55" y="705.00" text-anchor="middle" class="axis">sum</text><text x="1324.55" y="729.00" text-anchor="middle" class="axis">100.0% hits</text><rect x="1418.51" y="679.00" width="59.35" height="1.00" class="saved"/><text x="1448.18" y="670.00" text-anchor="middle" class="value">9</text><text x="1448.18" y="705.00" text-anchor="middle" class="axis">xargs.1</text><text x="1448.18" y="729.00" text-anchor="middle" class="axis">100.0% hits</text><rect x="80.0" y="785.0" width="340.0" height="125.0" rx="10" class="card"/><text x="100.0" y="814.0" class="metric-label">Transformed hits</text><text x="100.0" y="855.0" class="metric">643 / 693</text><text x="100.0" y="884.0" class="metric-label">92.78% of chunks</text><rect x="460.0" y="785.0" width="340.0" height="125.0" rx="10" class="card"/><text x="480.0" y="814.0" class="metric-label">Net stored-byte gain</text><text x="480.0" y="855.0" class="metric">12,960 B</text><text x="480.0" y="884.0" class="metric-label">against the best raw/direct frame</text><rect x="840.0" y="785.0" width="340.0" height="125.0" rx="10" class="card"/><text x="860.0" y="814.0" class="metric-label">Practical search wall</text><text x="860.0" y="855.0" class="metric">34.94 s</text><text x="860.0" y="884.0" class="metric-label">19.84 chunks/s</text><rect x="1220.0" y="785.0" width="340.0" height="125.0" rx="10" class="card"/><text x="1240.0" y="814.0" class="metric-label">Exact sample recall</text><text x="1240.0" y="855.0" class="metric">100.0%</text><text x="1240.0" y="884.0" class="metric-label">6 hash-selected chunks</text><rect x="1120" y="121" width="18" height="18" class="saved"/><text x="1148" y="136" class="axis">saved complete-frame bytes</text><text x="80" y="744" class="note">A “hit” requires at least one byte saved after the 2–3 byte generator description. Every winner was decoded and verified.</text><text x="80" y="952" class="note">The corpus is fixed but not a model of all workloads. Exact all-family validation covers a hash-selected sample, not every chunk.</text><text x="80" y="980" class="note">Period-2 targeted audit: 8/21 exact-size matches; exhaustive period-2 found 29 more bytes.</text></svg>
